<?xml version="1.0" standalone="no"?>
<!DOCTYPE svg PUBLIC "-//W3C//DTD SVG 20010904//EN"
 "http://www.w3.org/TR/2001/REC-SVG-20010904/DTD/svg10.dtd">
<svg version="1.0" xmlns="http://www.w3.org/2000/svg"
 width="174.000000pt" height="249.000000pt" viewBox="0 0 174.000000 249.000000"
 preserveAspectRatio="xMidYMid meet">

<g transform="translate(0.000000,249.000000) scale(0.100000,-0.100000)"
fill="#000000" stroke="none">
<path d="M10 1604 l0 -875 22 3 23 3 3 848 2 847 825 0 825 0 0 25 0 25 -850
0 -850 0 0 -876z"/>
<path d="M835 2161 c-132 -36 -219 -85 -316 -178 -155 -147 -237 -375 -210
-580 6 -48 14 -90 19 -95 7 -7 576 -78 628 -78 l24 0 0 140 0 140 365 0 365 0
0 25 c0 49 -22 125 -36 125 -31 0 -1239 141 -1243 146 -2 2 267 4 598 4 l603
0 -17 28 c-98 154 -226 255 -395 312 -95 32 -288 38 -385 11z"/>
<path d="M1040 1335 c0 -63 1 -115 3 -116 1 0 126 -15 277 -33 l275 -34 -277
-1 -278 -1 0 -186 0 -187 63 6 c86 8 213 56 297 112 166 110 283 300 306 498
l7 57 -337 0 -336 0 0 -115z"/>
<path d="M390 1142 c0 -4 12 -25 27 -47 117 -176 292 -285 501 -313 l62 -9 0
189 0 188 -295 0 c-162 0 -295 -3 -295 -8z"/>
<path d="M810 490 c0 -10 -55 -389 -65 -448 -5 -29 -4 -32 18 -32 22 0 25 5
32 56 l7 55 36 -3 c33 -3 37 -6 40 -33 5 -59 12 -75 32 -75 26 0 26 -3 -10
240 -39 264 -35 250 -65 250 -14 0 -25 -5 -25 -10z m45 -243 l7 -77 -27 0
c-26 0 -27 2 -22 38 4 20 9 64 13 96 9 73 19 53 29 -57z"/>
<path d="M1213 485 c-52 -37 -50 -123 6 -255 38 -88 45 -124 31 -150 -9 -18
-18 -21 -41 -16 -27 5 -29 3 -29 -24 0 -23 5 -31 26 -36 95 -24 123 99 60 254
-58 140 -59 188 -5 180 28 -4 30 -3 27 26 -2 25 -8 32 -28 34 -14 1 -35 -4
-47 -13z"/>
<path d="M1616 488 c-6 -19 -66 -440 -66 -460 0 -11 8 -18 20 -18 18 0 24 14
33 90 1 10 15 16 38 18 l37 3 7 -55 c6 -51 9 -56 31 -56 23 0 24 3 19 33 -11
63 -65 431 -65 444 0 17 -49 17 -54 1z m53 -305 c1 -8 -10 -13 -25 -13 l-27 0
7 72 c11 124 19 133 32 38 7 -47 13 -91 13 -97z"/>
<path d="M10 250 l0 -240 25 0 25 0 0 240 0 240 -25 0 -25 0 0 -240z"/>
<path d="M410 250 l0 -240 25 0 25 0 0 240 0 240 -25 0 -25 0 0 -240z"/>
</g>
</svg>
