<svg id="svg" version="1.1" xmlns="http://www.w3.org/2000/svg" xmlns:xlink="http://www.w3.org/1999/xlink" width="400" height="572.4137931034483" viewBox="0, 0, 400,572.4137931034483"><g id="svgg"><path id="path0" d="M0.000 202.800 L 0.000 405.600 7.400 405.600 L 14.800 405.600 14.800 210.200 L 14.800 14.800 205.600 14.800 L 396.400 14.800 396.400 7.400 L 396.400 0.000 198.200 0.000 L 0.000 0.000 0.000 202.800 M213.067 68.267 C 212.920 68.413,212.800 68.863,212.800 69.267 C 212.800 69.947,212.340 70.000,206.433 70.000 C 199.302 70.000,198.800 70.094,198.800 71.432 C 198.800 72.375,198.784 72.378,193.318 72.489 C 187.837 72.600,187.835 72.600,187.601 73.600 C 187.379 74.548,187.192 74.610,183.984 74.800 C 180.646 74.997,180.598 75.015,180.473 76.100 L 180.347 77.200 176.973 77.200 C 173.642 77.200,173.600 77.212,173.600 78.200 C 173.600 79.146,173.476 79.202,171.300 79.240 C 168.117 79.295,167.025 79.659,166.872 80.716 C 166.758 81.504,166.508 81.600,164.562 81.600 C 162.458 81.600,162.371 81.643,162.140 82.800 C 161.909 83.955,161.819 84.000,159.750 84.000 C 157.636 84.000,157.600 84.020,157.600 85.180 C 157.600 86.336,157.553 86.363,155.300 86.480 C 153.263 86.586,152.985 86.703,152.872 87.500 C 152.765 88.255,152.497 88.400,151.205 88.400 C 149.054 88.400,148.400 88.736,148.400 89.843 C 148.400 90.640,148.199 90.800,147.200 90.800 C 146.133 90.800,146.000 90.933,146.000 92.000 C 146.000 93.188,145.978 93.200,143.800 93.200 C 141.622 93.200,141.600 93.212,141.600 94.400 C 141.600 95.587,141.577 95.600,139.408 95.600 C 137.429 95.600,137.192 95.693,136.975 96.556 C 136.812 97.207,136.362 97.588,135.568 97.746 C 134.647 97.931,134.400 98.194,134.400 98.990 C 134.400 99.786,134.199 100.000,133.450 100.000 C 132.714 100.000,132.446 100.271,132.260 101.200 C 132.031 102.343,131.924 102.400,130.000 102.400 C 128.084 102.400,127.968 102.461,127.744 103.578 C 127.564 104.478,127.260 104.784,126.454 104.878 C 125.723 104.963,125.362 105.268,125.275 105.875 C 125.198 106.421,124.821 106.798,124.275 106.875 C 123.657 106.963,123.363 107.323,123.273 108.100 C 123.167 109.021,122.956 109.200,121.973 109.200 C 120.936 109.200,120.800 109.339,120.800 110.400 C 120.800 111.467,120.667 111.600,119.600 111.600 C 118.533 111.600,118.400 111.733,118.400 112.800 C 118.400 113.867,118.267 114.000,117.200 114.000 C 116.187 114.000,116.000 114.156,116.000 115.000 C 116.000 115.800,115.800 116.000,115.000 116.000 C 114.156 116.000,114.000 116.187,114.000 117.200 C 114.000 118.267,113.867 118.400,112.800 118.400 C 111.733 118.400,111.600 118.533,111.600 119.600 C 111.600 120.661,111.464 120.800,110.427 120.800 C 109.444 120.800,109.233 120.979,109.127 121.900 C 109.027 122.764,108.764 123.027,107.900 123.127 C 107.046 123.225,106.800 123.465,106.800 124.199 C 106.800 124.875,106.543 125.181,105.900 125.272 C 105.267 125.362,104.964 125.713,104.878 126.454 C 104.784 127.260,104.478 127.564,103.578 127.744 C 102.464 127.967,102.400 128.088,102.400 129.963 C 102.400 131.830,102.335 131.954,101.300 132.073 C 100.443 132.172,100.173 132.438,100.076 133.276 C 99.980 134.107,99.707 134.380,98.876 134.476 C 98.044 134.572,97.772 134.844,97.676 135.675 C 97.589 136.428,97.289 136.788,96.676 136.875 C 95.922 136.983,95.783 137.289,95.680 139.073 C 95.568 141.005,95.480 141.163,94.380 141.404 C 93.486 141.601,93.200 141.889,93.200 142.593 C 93.200 143.265,92.869 143.637,92.000 143.940 C 90.883 144.329,90.800 144.496,90.800 146.353 C 90.800 148.231,90.736 148.354,89.700 148.473 C 88.674 148.591,88.592 148.741,88.479 150.700 C 88.368 152.628,88.278 152.800,87.379 152.800 C 86.449 152.800,86.400 152.920,86.400 155.200 L 86.400 157.600 85.200 157.600 C 84.014 157.600,84.000 157.625,84.000 159.773 C 84.000 161.847,83.950 161.953,82.900 162.073 C 81.860 162.193,81.793 162.325,81.681 164.475 C 81.569 166.615,81.497 166.758,80.481 166.875 C 79.478 166.991,79.391 167.151,79.279 169.098 C 79.173 170.933,79.038 171.225,78.195 171.437 C 77.288 171.665,77.224 171.871,77.116 174.939 C 77.001 178.166,76.989 178.201,75.900 178.327 L 74.800 178.453 74.800 181.827 C 74.800 185.118,74.777 185.200,73.843 185.200 C 72.563 185.200,72.400 185.787,72.400 190.405 C 72.400 194.163,72.359 194.350,71.516 194.472 C 70.285 194.650,70.086 195.703,70.040 202.300 L 70.000 208.000 68.997 208.000 L 67.994 208.000 68.097 232.100 L 68.200 256.200 69.090 256.327 C 69.965 256.451,69.983 256.570,70.090 263.127 L 70.200 269.800 71.300 269.927 C 72.362 270.049,72.400 270.135,72.400 272.427 C 72.400 274.785,72.407 274.800,73.573 274.800 C 74.556 274.800,74.767 274.979,74.873 275.900 L 75.000 277.000 84.073 277.107 C 93.118 277.215,93.147 277.218,93.273 278.107 L 93.400 279.000 103.700 279.107 L 114.000 279.214 114.000 280.407 L 114.000 281.600 123.200 281.600 L 132.400 281.600 132.400 282.550 C 132.400 283.882,133.333 284.000,143.822 284.000 L 152.744 284.000 152.872 284.900 L 153.000 285.800 163.300 285.907 L 173.600 286.014 173.600 287.207 L 173.600 288.400 182.800 288.400 C 191.393 288.400,192.000 288.448,192.000 289.120 C 192.000 290.708,192.596 290.800,202.853 290.800 L 212.747 290.800 212.873 291.900 L 213.000 293.000 219.700 293.110 L 226.400 293.219 226.400 261.011 L 226.400 228.802 311.300 228.701 L 396.200 228.600 396.311 222.900 L 396.422 217.200 395.411 217.200 L 394.400 217.200 394.400 208.774 C 394.400 200.072,394.196 198.800,392.799 198.800 C 392.088 198.800,392.017 198.442,391.913 194.300 L 391.800 189.800 388.539 189.684 C 385.504 189.577,385.263 189.505,385.045 188.638 C 384.724 187.356,383.503 187.210,373.100 187.204 L 364.400 187.200 364.400 186.200 L 364.400 185.200 355.200 185.200 C 346.607 185.200,346.000 185.152,346.000 184.480 C 346.000 182.892,345.404 182.800,335.147 182.800 L 325.253 182.800 325.127 181.700 L 325.000 180.600 314.700 180.493 L 304.400 180.386 304.400 179.436 C 304.400 178.048,304.035 178.000,293.595 178.000 L 284.056 178.000 283.928 177.100 C 283.800 176.201,283.794 176.200,274.749 176.093 L 265.697 175.985 265.459 174.793 L 265.220 173.600 255.037 173.600 L 244.853 173.600 244.727 172.500 L 244.600 171.400 234.300 171.447 L 224.000 171.493 224.000 170.393 C 224.000 168.879,223.575 168.812,213.928 168.805 C 205.656 168.800,205.656 168.800,205.528 167.900 L 205.400 167.000 195.330 166.893 L 185.261 166.786 184.999 165.593 L 184.736 164.400 174.595 164.400 L 164.453 164.400 164.327 163.300 L 164.200 162.200 155.131 162.204 L 146.062 162.208 145.846 161.129 C 145.665 160.224,145.386 160.025,144.115 159.892 C 143.282 159.805,195.574 159.704,260.321 159.667 L 378.042 159.600 377.921 157.500 C 377.816 155.671,377.684 155.384,376.900 155.272 C 376.103 155.159,376.000 154.914,376.000 153.137 C 376.000 151.282,375.911 151.097,374.818 150.684 C 373.751 150.282,373.625 150.043,373.518 148.219 C 373.409 146.358,373.316 146.190,372.320 146.075 C 371.320 145.960,371.231 145.797,371.120 143.875 C 371.008 141.943,370.924 141.791,369.900 141.673 C 368.979 141.567,368.800 141.356,368.800 140.373 C 368.800 139.388,368.639 139.200,367.800 139.200 C 366.956 139.200,366.800 139.013,366.800 138.000 C 366.800 136.938,366.664 136.800,365.621 136.800 C 364.481 136.800,364.438 136.731,364.321 134.700 C 364.208 132.741,364.126 132.591,363.100 132.473 C 362.179 132.367,362.000 132.156,362.000 131.173 C 362.000 130.136,361.861 130.000,360.800 130.000 C 359.733 130.000,359.600 129.867,359.600 128.800 C 359.600 127.802,359.439 127.600,358.646 127.600 C 357.790 127.600,357.664 127.375,357.417 125.400 C 357.174 123.450,357.038 123.200,356.221 123.200 C 355.518 123.200,355.243 122.916,355.060 122.000 C 354.869 121.047,354.612 120.800,353.810 120.800 C 353.104 120.800,352.800 120.583,352.800 120.080 C 352.800 119.168,352.044 118.400,351.147 118.400 C 350.687 118.400,350.410 118.028,350.327 117.300 C 350.237 116.523,349.943 116.163,349.325 116.075 C 348.779 115.998,348.402 115.621,348.325 115.075 C 348.237 114.457,347.877 114.163,347.100 114.073 C 346.372 113.990,346.000 113.713,346.000 113.253 C 346.000 112.356,345.232 111.600,344.320 111.600 C 343.893 111.600,343.600 111.307,343.600 110.880 C 343.600 109.958,342.842 109.200,341.920 109.200 C 341.429 109.200,341.200 108.898,341.200 108.250 C 341.200 107.274,340.072 106.800,337.750 106.800 C 337.012 106.800,336.800 106.584,336.800 105.832 C 336.800 105.081,336.530 104.804,335.600 104.600 C 334.670 104.396,334.400 104.119,334.400 103.368 C 334.400 102.559,334.203 102.400,333.200 102.400 C 332.133 102.400,332.000 102.267,332.000 101.200 C 332.000 100.133,331.867 100.000,330.800 100.000 C 329.804 100.000,329.600 99.839,329.600 99.050 C 329.600 98.074,328.472 97.600,326.150 97.600 C 325.403 97.600,325.200 97.386,325.200 96.600 C 325.200 95.761,325.012 95.600,324.027 95.600 C 323.044 95.600,322.833 95.421,322.727 94.500 C 322.609 93.476,322.457 93.392,320.525 93.280 C 318.603 93.169,318.440 93.080,318.325 92.080 C 318.207 91.063,318.066 90.993,315.900 90.880 C 313.659 90.763,313.600 90.730,313.600 89.607 C 313.600 88.646,313.416 88.432,312.500 88.327 C 311.712 88.236,311.364 87.944,311.272 87.300 C 311.158 86.494,310.919 86.400,308.999 86.400 C 306.955 86.400,306.847 86.348,306.727 85.300 C 306.601 84.210,306.570 84.199,303.300 84.084 L 300.000 83.968 300.000 82.784 C 300.000 81.616,299.971 81.600,297.800 81.600 C 295.948 81.600,295.600 81.486,295.600 80.880 C 295.600 79.702,294.752 79.200,292.763 79.200 C 291.095 79.200,290.859 79.089,290.636 78.200 C 290.395 77.239,290.261 77.200,287.232 77.200 C 284.088 77.200,284.077 77.196,283.660 76.000 L 283.242 74.800 279.047 74.800 L 274.853 74.800 274.727 73.700 L 274.600 72.600 270.100 72.487 C 265.670 72.376,265.600 72.359,265.600 71.430 C 265.600 70.077,265.135 70.000,257.011 70.000 L 249.687 70.000 249.436 69.000 L 249.185 68.000 231.259 68.000 C 221.400 68.000,213.213 68.120,213.067 68.267 M235.784 236.100 C 235.679 236.375,235.640 249.740,235.697 265.800 L 235.800 295.000 243.874 295.108 L 251.948 295.216 252.074 296.308 L 252.200 297.400 262.274 297.507 L 272.348 297.614 272.474 298.707 L 272.600 299.800 282.874 299.907 L 293.148 300.013 293.274 301.107 L 293.400 302.200 302.473 302.307 C 311.518 302.415,311.547 302.418,311.673 303.307 L 311.800 304.200 322.100 304.307 L 332.400 304.414 332.400 305.605 L 332.400 306.797 284.100 306.898 L 235.800 307.000 235.698 351.700 L 235.597 396.400 245.755 396.400 L 255.913 396.400 256.164 395.400 L 256.415 394.400 261.575 394.400 C 267.449 394.400,268.000 394.277,268.000 392.970 C 268.000 392.041,268.070 392.024,272.500 391.913 L 277.000 391.800 277.125 390.713 L 277.251 389.627 281.508 389.513 C 285.681 389.402,285.770 389.380,285.999 388.400 C 286.210 387.497,286.454 387.388,288.516 387.280 C 290.641 387.168,290.800 387.092,290.800 386.180 C 290.800 385.234,290.897 385.200,293.567 385.200 C 296.964 385.200,297.600 384.976,297.600 383.777 C 297.600 382.917,297.789 382.830,299.900 382.720 C 302.077 382.606,302.207 382.541,302.327 381.500 C 302.447 380.450,302.553 380.400,304.627 380.400 C 306.767 380.400,306.800 380.382,306.800 379.220 C 306.800 378.064,306.847 378.037,309.100 377.920 C 311.137 377.814,311.415 377.697,311.528 376.900 C 311.635 376.145,311.903 376.000,313.195 376.000 C 315.346 376.000,316.000 375.664,316.000 374.557 C 316.000 373.699,316.175 373.599,317.700 373.594 C 319.683 373.587,320.251 373.299,320.457 372.200 C 320.556 371.673,320.982 371.357,321.703 371.273 C 322.621 371.168,322.800 370.955,322.800 369.973 C 322.800 368.818,322.834 368.800,324.992 368.800 C 326.997 368.800,327.206 368.715,327.436 367.800 C 327.580 367.226,327.975 366.800,328.363 366.800 C 329.246 366.800,330.000 366.026,330.000 365.120 C 330.000 364.619,330.304 364.400,331.000 364.400 C 331.844 364.400,332.000 364.213,332.000 363.200 C 332.000 362.033,332.053 362.000,333.920 362.000 C 335.950 362.000,336.800 361.504,336.800 360.320 C 336.800 359.820,337.103 359.600,337.792 359.600 C 338.511 359.600,338.852 359.331,339.030 358.623 C 339.179 358.028,339.613 357.598,340.138 357.523 C 340.742 357.437,341.038 357.071,341.127 356.300 C 341.233 355.379,341.444 355.200,342.427 355.200 C 343.464 355.200,343.600 355.061,343.600 354.000 C 343.600 352.933,343.733 352.800,344.800 352.800 C 345.867 352.800,346.000 352.667,346.000 351.600 C 346.000 350.533,346.133 350.400,347.200 350.400 C 348.213 350.400,348.400 350.244,348.400 349.400 C 348.400 348.600,348.600 348.400,349.400 348.400 C 350.244 348.400,350.400 348.213,350.400 347.200 C 350.400 346.133,350.533 346.000,351.600 346.000 C 352.661 346.000,352.800 345.864,352.800 344.827 C 352.800 343.844,352.979 343.633,353.900 343.527 C 354.757 343.428,355.027 343.162,355.124 342.324 C 355.220 341.493,355.493 341.220,356.324 341.124 C 357.156 341.028,357.428 340.756,357.524 339.925 C 357.611 339.172,357.911 338.812,358.524 338.725 C 359.279 338.617,359.417 338.311,359.521 336.500 C 359.638 334.469,359.681 334.400,360.821 334.400 C 361.864 334.400,362.000 334.262,362.000 333.200 C 362.000 332.133,362.133 332.000,363.200 332.000 C 364.213 332.000,364.400 331.844,364.400 331.000 C 364.400 330.400,364.629 330.000,364.971 330.000 C 366.064 330.000,366.800 328.781,366.800 326.971 C 366.800 325.349,366.884 325.200,367.800 325.200 C 368.644 325.200,368.800 325.013,368.800 324.000 C 368.800 322.933,368.933 322.800,370.000 322.800 C 371.188 322.800,371.200 322.778,371.200 320.600 C 371.200 318.422,371.212 318.400,372.400 318.400 C 373.460 318.400,373.600 318.264,373.600 317.228 C 373.600 316.317,373.800 316.027,374.500 315.928 C 375.243 315.822,375.465 315.436,375.770 313.719 C 376.064 312.064,376.310 311.613,376.970 311.519 C 377.682 311.417,377.817 311.076,377.919 309.125 C 378.031 306.985,378.103 306.842,379.119 306.725 C 380.118 306.609,380.215 306.434,380.400 304.403 C 380.563 302.610,380.747 302.179,381.400 302.057 C 382.593 301.834,382.787 301.282,382.794 298.100 L 382.800 295.200 384.000 295.200 C 385.186 295.200,385.200 295.175,385.200 293.028 C 385.200 291.080,385.293 290.842,386.100 290.728 C 386.938 290.609,387.008 290.375,387.115 287.347 C 387.231 284.095,387.231 284.094,388.415 283.857 L 389.600 283.620 389.600 279.237 L 389.600 274.853 390.700 274.727 L 391.800 274.600 391.913 270.100 C 392.002 266.570,392.147 265.600,392.585 265.600 C 394.202 265.600,394.400 264.638,394.400 256.799 C 394.400 249.281,394.403 249.255,395.300 249.128 C 396.390 248.973,396.963 236.604,395.911 235.936 C 394.999 235.358,236.005 235.520,235.784 236.100 M86.484 310.100 C 86.591 313.148,86.667 313.410,87.476 313.525 C 88.089 313.612,88.389 313.972,88.476 314.725 C 88.572 315.557,88.844 315.828,89.681 315.925 C 90.697 316.042,90.769 316.185,90.881 318.325 C 90.993 320.464,91.064 320.607,92.080 320.725 C 93.080 320.840,93.169 321.003,93.280 322.925 C 93.392 324.857,93.476 325.009,94.500 325.127 C 95.421 325.233,95.600 325.444,95.600 326.427 C 95.600 327.403,95.763 327.600,96.573 327.600 C 97.338 327.600,97.574 327.836,97.673 328.700 C 97.773 329.564,98.036 329.827,98.900 329.927 C 99.907 330.042,100.000 330.197,100.000 331.747 C 100.000 333.564,100.529 334.400,101.680 334.400 C 102.213 334.400,102.400 334.711,102.400 335.600 C 102.400 336.661,102.536 336.800,103.573 336.800 C 104.556 336.800,104.767 336.979,104.873 337.900 C 104.964 338.688,105.256 339.036,105.900 339.128 C 106.551 339.220,106.800 339.524,106.800 340.228 C 106.800 341.041,106.996 341.200,108.000 341.200 C 109.067 341.200,109.200 341.333,109.200 342.400 C 109.200 343.462,109.336 343.600,110.379 343.600 C 111.518 343.600,111.562 343.671,111.679 345.684 C 111.786 347.524,111.915 347.795,112.785 347.998 C 113.403 348.143,113.857 348.597,114.002 349.215 C 114.143 349.819,114.563 350.248,115.086 350.324 C 115.611 350.400,116.096 350.900,116.348 351.624 C 116.729 352.716,116.903 352.800,118.779 352.800 C 120.758 352.800,120.800 352.825,120.800 354.000 C 120.800 355.003,120.959 355.200,121.768 355.200 C 122.519 355.200,122.796 355.470,123.000 356.400 C 123.204 357.330,123.481 357.600,124.232 357.600 C 124.998 357.600,125.200 357.809,125.200 358.600 C 125.200 359.444,125.387 359.600,126.400 359.600 C 127.467 359.600,127.600 359.733,127.600 360.800 C 127.600 361.867,127.733 362.000,128.800 362.000 C 129.689 362.000,130.000 362.187,130.000 362.720 C 130.000 363.871,130.836 364.400,132.653 364.400 C 134.203 364.400,134.358 364.493,134.473 365.500 C 134.573 366.364,134.836 366.627,135.700 366.727 C 136.564 366.826,136.800 367.062,136.800 367.827 C 136.800 368.637,136.997 368.800,137.973 368.800 C 138.956 368.800,139.167 368.979,139.273 369.900 C 139.391 370.924,139.543 371.008,141.475 371.120 C 143.397 371.231,143.560 371.320,143.675 372.320 C 143.793 373.336,143.936 373.407,146.075 373.519 C 148.215 373.631,148.358 373.703,148.475 374.719 C 148.572 375.556,148.843 375.828,149.675 375.924 C 150.428 376.011,150.788 376.311,150.875 376.924 C 150.983 377.679,151.289 377.817,153.100 377.921 C 154.786 378.018,155.200 378.180,155.200 378.741 C 155.200 379.904,156.061 380.400,158.080 380.400 C 159.838 380.400,160.000 380.481,160.000 381.357 C 160.000 382.575,160.626 382.800,164.006 382.800 C 166.699 382.800,166.749 382.819,166.873 383.900 C 166.991 384.924,167.143 385.008,169.075 385.120 C 170.863 385.224,171.167 385.361,171.275 386.120 C 171.391 386.933,171.647 387.009,174.672 387.116 C 177.937 387.231,177.944 387.234,178.203 388.416 L 178.464 389.600 181.805 389.600 L 185.147 389.600 185.273 390.700 L 185.400 391.800 189.900 391.913 C 194.325 392.024,194.400 392.042,194.400 392.966 C 194.400 394.251,195.136 394.388,202.072 394.395 C 207.855 394.400,207.946 394.414,208.072 395.300 C 208.200 396.200,208.204 396.200,217.300 396.308 L 226.400 396.415 226.400 351.608 L 226.400 306.800 156.384 306.800 L 86.368 306.800 86.484 310.100 M284.000 455.200 L 284.000 456.400 280.600 456.400 L 277.200 456.400 277.200 457.600 C 277.200 458.667,277.067 458.800,276.000 458.800 C 274.995 458.800,274.800 458.959,274.800 459.773 C 274.800 460.538,274.564 460.774,273.700 460.873 C 272.660 460.993,272.593 461.125,272.481 463.275 C 272.369 465.415,272.297 465.558,271.281 465.675 C 270.280 465.791,270.191 465.953,270.080 467.875 C 269.976 469.663,269.839 469.967,269.080 470.075 L 268.200 470.200 268.200 483.800 L 268.200 497.400 269.084 497.526 C 269.903 497.642,269.977 497.894,270.084 500.926 C 270.199 504.168,270.211 504.201,271.300 504.327 C 272.398 504.453,272.400 504.459,272.400 507.661 C 272.400 510.859,272.404 510.871,273.600 511.322 C 274.725 511.747,274.800 511.908,274.800 513.888 C 274.800 515.968,274.818 516.000,276.000 516.000 L 277.200 516.000 277.200 519.400 C 277.200 522.760,277.212 522.800,278.200 522.800 C 279.116 522.800,279.200 522.949,279.200 524.567 C 279.200 526.950,279.509 527.600,280.643 527.600 C 281.565 527.600,281.600 527.707,281.600 530.520 C 281.600 533.526,281.975 534.400,283.264 534.400 C 283.869 534.400,283.984 534.861,284.084 537.700 C 284.199 540.970,284.210 541.001,285.300 541.127 L 286.400 541.253 286.400 547.027 L 286.400 552.800 285.200 552.800 C 284.133 552.800,284.000 552.933,284.000 554.000 C 284.000 555.067,283.867 555.200,282.800 555.200 C 281.733 555.200,281.600 555.333,281.600 556.400 C 281.600 557.467,281.467 557.600,280.400 557.600 C 279.333 557.600,279.200 557.467,279.200 556.400 C 279.200 555.333,279.067 555.200,278.000 555.200 C 277.001 555.200,276.800 555.040,276.800 554.243 C 276.800 553.558,276.518 553.216,275.806 553.037 C 275.212 552.888,274.717 552.408,274.576 551.845 C 274.318 550.818,271.070 550.116,268.989 550.639 L 268.000 550.887 268.000 561.043 L 268.000 571.200 270.200 571.200 C 271.889 571.200,272.400 571.339,272.400 571.800 C 272.400 572.316,273.689 572.400,281.600 572.400 C 289.511 572.400,290.800 572.316,290.800 571.800 C 290.800 571.339,291.312 571.200,293.010 571.200 C 295.136 571.200,295.229 571.155,295.456 570.022 C 295.616 569.219,295.963 568.805,296.546 568.722 C 297.275 568.618,297.418 568.294,297.521 566.500 C 297.638 564.469,297.681 564.400,298.821 564.400 L 300.000 564.400 300.000 561.027 L 300.000 557.653 301.100 557.527 L 302.200 557.400 302.200 546.000 L 302.200 534.600 301.113 534.475 L 300.026 534.349 299.913 529.875 L 299.800 525.400 298.716 525.275 C 297.646 525.152,297.630 525.106,297.516 521.875 C 297.409 518.847,297.334 518.591,296.520 518.475 C 295.763 518.367,295.623 518.063,295.520 516.291 C 295.414 514.468,295.285 514.206,294.400 514.000 C 293.518 513.795,293.388 513.534,293.299 511.784 C 293.113 508.103,292.858 507.301,291.790 507.033 C 290.887 506.807,290.800 506.591,290.800 504.592 C 290.800 502.430,290.784 502.400,289.616 502.400 L 288.432 502.400 288.316 499.100 C 288.209 496.046,288.134 495.791,287.319 495.675 C 286.546 495.565,286.424 495.271,286.319 493.275 C 286.207 491.125,286.140 490.993,285.100 490.873 L 284.000 490.747 284.000 482.773 L 284.000 474.800 285.174 474.800 C 287.023 474.800,288.400 474.121,288.400 473.210 C 288.400 472.577,288.662 472.400,289.600 472.400 C 290.599 472.400,290.800 472.560,290.800 473.357 C 290.800 474.491,291.450 474.800,293.833 474.800 C 295.461 474.800,295.600 474.880,295.600 475.821 C 295.600 476.801,295.684 476.837,297.700 476.721 L 299.800 476.600 299.908 467.700 L 300.015 458.800 298.808 458.800 C 297.732 458.800,297.600 458.668,297.600 457.600 C 297.600 456.414,297.575 456.400,295.427 456.400 C 293.523 456.400,293.219 456.288,292.973 455.500 C 292.548 454.139,292.121 454.013,287.900 454.006 L 284.000 454.000 284.000 455.200 M0.000 514.400 L 0.000 572.400 7.400 572.400 L 14.800 572.400 14.800 514.400 L 14.800 456.400 7.400 456.400 L 0.000 456.400 0.000 514.400 M93.200 514.400 L 93.200 572.400 100.000 572.400 L 106.800 572.400 106.800 514.400 L 106.800 456.400 100.000 456.400 L 93.200 456.400 93.200 514.400 M185.200 457.600 C 185.200 458.667,185.067 458.800,184.000 458.800 L 182.800 458.800 182.800 466.773 L 182.800 474.747 181.700 474.873 L 180.600 475.000 180.642 482.900 L 180.685 490.800 179.592 490.800 C 178.163 490.800,178.000 491.644,178.000 499.022 C 178.000 504.652,177.985 504.746,177.100 504.872 C 176.206 504.999,176.199 505.050,176.092 512.874 L 175.983 520.748 174.892 520.874 L 173.800 521.000 173.692 528.874 L 173.583 536.748 172.492 536.874 L 171.400 537.000 171.400 543.900 L 171.400 550.801 170.356 550.800 C 169.042 550.800,168.809 552.317,168.803 560.900 L 168.800 566.800 167.800 566.800 C 166.829 566.800,166.800 566.880,166.800 569.600 L 166.800 572.400 174.800 572.400 L 182.800 572.400 182.800 570.628 C 182.800 569.105,182.924 568.838,183.684 568.728 C 184.946 568.545,185.115 567.516,185.160 559.728 C 185.200 552.919,185.208 552.854,186.100 552.728 C 186.884 552.616,187.016 552.329,187.121 550.500 L 187.242 548.400 193.010 548.400 L 198.777 548.400 198.889 553.900 L 199.000 559.400 200.100 559.527 L 201.200 559.653 201.200 566.027 L 201.200 572.400 209.200 572.400 L 217.200 572.400 217.200 566.227 L 217.200 560.053 216.100 559.927 L 215.000 559.800 214.892 551.941 L 214.783 544.083 213.801 543.836 L 212.819 543.590 212.710 536.895 L 212.600 530.200 211.500 530.073 L 210.400 529.947 210.400 521.973 L 210.400 514.000 209.208 514.000 L 208.017 514.000 207.908 505.900 L 207.800 497.800 206.708 497.674 L 205.617 497.548 205.508 489.674 C 205.401 481.850,205.394 481.799,204.500 481.672 C 203.610 481.546,203.599 481.471,203.553 474.872 C 203.496 466.922,203.326 465.847,202.097 465.672 C 201.227 465.548,201.200 465.405,201.200 460.972 L 201.200 456.400 193.200 456.400 L 185.200 456.400 185.200 457.600 M369.043 457.033 C 368.909 457.381,368.800 459.451,368.800 461.633 C 368.800 465.598,368.799 465.600,367.800 465.600 L 366.800 465.600 366.800 473.573 L 366.800 481.547 365.700 481.673 L 364.600 481.800 364.491 488.700 L 364.381 495.600 363.409 495.600 C 362.073 495.600,361.899 496.807,362.065 504.951 L 362.200 511.601 361.157 511.600 C 359.873 511.600,359.600 513.430,359.600 522.059 L 359.600 527.600 358.600 527.600 L 357.600 527.600 357.600 535.573 L 357.600 543.547 356.500 543.673 L 355.400 543.800 355.291 550.700 L 355.181 557.600 354.237 557.600 C 352.934 557.600,352.812 558.308,352.805 565.900 L 352.800 572.400 360.800 572.400 L 368.800 572.400 368.800 566.027 L 368.800 559.653 369.900 559.527 L 371.000 559.400 371.111 553.900 L 371.223 548.400 377.011 548.400 L 382.800 548.400 382.800 550.120 C 382.800 551.963,383.325 552.800,384.480 552.800 C 385.149 552.800,385.200 553.363,385.200 560.800 L 385.200 568.800 386.200 568.800 C 387.119 568.800,387.200 568.947,387.200 570.600 L 387.200 572.400 393.600 572.400 L 400.000 572.400 400.000 562.600 C 400.000 554.156,399.917 552.800,399.400 552.800 C 398.888 552.800,398.800 551.698,398.800 545.280 C 398.800 537.500,398.661 536.800,397.120 536.800 C 396.455 536.800,396.400 536.283,396.400 530.028 C 396.400 523.309,396.393 523.255,395.500 523.128 C 394.610 523.001,394.598 522.915,394.379 515.000 C 394.126 505.868,394.282 506.800,393.008 506.800 L 392.017 506.800 391.908 498.900 L 391.800 491.000 390.708 490.874 L 389.617 490.748 389.508 482.874 L 389.400 475.000 388.308 474.874 L 387.217 474.748 387.108 466.874 C 387.001 459.050,386.994 458.999,386.100 458.872 C 385.400 458.773,385.200 458.483,385.200 457.572 L 385.200 456.400 377.243 456.400 C 370.356 456.400,369.253 456.485,369.043 457.033 M378.000 511.350 C 378.000 517.634,378.186 518.400,379.708 518.400 L 380.916 518.400 380.661 521.100 C 380.520 522.585,380.404 525.195,380.403 526.900 L 380.400 530.000 377.000 530.000 L 373.600 530.000 373.600 527.628 C 373.600 525.486,373.686 525.243,374.484 525.128 C 375.771 524.942,375.916 523.940,375.960 514.900 L 376.000 506.800 377.000 506.800 L 378.000 506.800 378.000 511.350 M194.400 517.245 L 194.400 525.200 195.400 525.200 C 196.356 525.200,196.400 525.307,196.400 527.600 L 196.400 530.000 193.000 530.000 L 189.600 530.000 189.600 523.000 L 189.600 516.000 190.800 516.000 L 192.000 516.000 192.000 512.469 L 192.000 508.939 193.200 509.115 L 194.400 509.291 194.400 517.245 " stroke="none" fill="#0c5c9c" fill-rule="evenodd"></path><path id="path1" d="M146.705 162.283 C 147.202 162.379,147.922 162.375,148.305 162.275 C 148.687 162.175,148.280 162.096,147.400 162.101 C 146.520 162.105,146.207 162.187,146.705 162.283 M225.100 171.489 C 225.815 171.578,226.985 171.578,227.700 171.489 C 228.415 171.401,227.830 171.328,226.400 171.328 C 224.970 171.328,224.385 171.401,225.100 171.489 M180.514 489.000 C 180.517 490.100,180.595 490.503,180.687 489.895 C 180.779 489.286,180.777 488.386,180.682 487.895 C 180.587 487.403,180.511 487.900,180.514 489.000 M380.514 520.200 C 380.517 521.300,380.595 521.703,380.687 521.095 C 380.779 520.486,380.777 519.586,380.682 519.095 C 380.587 518.603,380.511 519.100,380.514 520.200 " stroke="none" fill="#105c9c" fill-rule="evenodd"></path><path id="path2" d="M146.705 162.283 C 147.202 162.379,147.922 162.375,148.305 162.275 C 148.687 162.175,148.280 162.096,147.400 162.101 C 146.520 162.105,146.207 162.187,146.705 162.283 M225.100 171.489 C 225.815 171.578,226.985 171.578,227.700 171.489 C 228.415 171.401,227.830 171.328,226.400 171.328 C 224.970 171.328,224.385 171.401,225.100 171.489 M180.514 489.000 C 180.517 490.100,180.595 490.503,180.687 489.895 C 180.779 489.286,180.777 488.386,180.682 487.895 C 180.587 487.403,180.511 487.900,180.514 489.000 M380.514 520.200 C 380.517 521.300,380.595 521.703,380.687 521.095 C 380.779 520.486,380.777 519.586,380.682 519.095 C 380.587 518.603,380.511 519.100,380.514 520.200 " stroke="none" fill="#105c9c" fill-rule="evenodd"></path><path id="path3" d="M146.705 162.283 C 147.202 162.379,147.922 162.375,148.305 162.275 C 148.687 162.175,148.280 162.096,147.400 162.101 C 146.520 162.105,146.207 162.187,146.705 162.283 M225.100 171.489 C 225.815 171.578,226.985 171.578,227.700 171.489 C 228.415 171.401,227.830 171.328,226.400 171.328 C 224.970 171.328,224.385 171.401,225.100 171.489 M180.514 489.000 C 180.517 490.100,180.595 490.503,180.687 489.895 C 180.779 489.286,180.777 488.386,180.682 487.895 C 180.587 487.403,180.511 487.900,180.514 489.000 M380.514 520.200 C 380.517 521.300,380.595 521.703,380.687 521.095 C 380.779 520.486,380.777 519.586,380.682 519.095 C 380.587 518.603,380.511 519.100,380.514 520.200 " stroke="none" fill="#105c9c" fill-rule="evenodd"></path><path id="path4" d="M146.705 162.283 C 147.202 162.379,147.922 162.375,148.305 162.275 C 148.687 162.175,148.280 162.096,147.400 162.101 C 146.520 162.105,146.207 162.187,146.705 162.283 M225.100 171.489 C 225.815 171.578,226.985 171.578,227.700 171.489 C 228.415 171.401,227.830 171.328,226.400 171.328 C 224.970 171.328,224.385 171.401,225.100 171.489 M180.514 489.000 C 180.517 490.100,180.595 490.503,180.687 489.895 C 180.779 489.286,180.777 488.386,180.682 487.895 C 180.587 487.403,180.511 487.900,180.514 489.000 M380.514 520.200 C 380.517 521.300,380.595 521.703,380.687 521.095 C 380.779 520.486,380.777 519.586,380.682 519.095 C 380.587 518.603,380.511 519.100,380.514 520.200 " stroke="none" fill="#105c9c" fill-rule="evenodd"></path></g></svg>