<?xml version="1.0" standalone="no"?>
<!DOCTYPE svg PUBLIC "-//W3C//DTD SVG 20010904//EN"
 "http://www.w3.org/TR/2001/REC-SVG-20010904/DTD/svg10.dtd">
<svg version="1.0" xmlns="http://www.w3.org/2000/svg"
 width="145.000000pt" height="96.000000pt" viewBox="0 0 145.000000 96.000000"
 preserveAspectRatio="xMidYMid meet">

<g transform="translate(0.000000,96.000000) scale(0.100000,-0.100000)"
fill="#000000" stroke="none">
<path d="M680 941 c-94 -29 -178 -102 -204 -176 -20 -60 -20 -107 -1 -171 17
-56 20 -150 5 -159 -15 -9 -12 -25 3 -19 38 14 58 96 45 181 -7 45 -6 66 7 99
19 51 88 117 139 134 37 12 148 9 191 -4 17 -6 23 1 39 40 21 52 19 56 -44 74
-40 11 -143 12 -180 1z"/>
<path d="M694 798 c3 -13 6 -29 6 -35 0 -7 5 -13 10 -13 6 0 10 16 10 35 0 26
-4 35 -16 35 -12 0 -15 -6 -10 -22z"/>
<path d="M736 794 c-8 -30 0 -45 10 -19 4 9 21 23 38 31 l31 13 -36 1 c-32 0
-38 -4 -43 -26z"/>
<path d="M663 803 c-10 -4 -9 -12 3 -35 19 -36 28 -31 17 9 -5 17 -13 28 -20
26z"/>
<path d="M620 777 c0 -14 31 -47 44 -47 3 0 0 14 -9 30 -16 31 -35 40 -35 17z"/>
<path d="M594 759 c-4 -7 3 -19 17 -30 31 -23 36 -16 11 16 -14 17 -23 22 -28
14z"/>
<path d="M570 728 c0 -8 12 -20 26 -27 32 -14 29 5 -4 27 -19 13 -22 13 -22 0z"/>
<path d="M673 711 c-47 -29 -67 -74 -59 -130 4 -25 9 -69 13 -97 l5 -51 57 14
58 15 64 -41 c81 -52 89 -52 78 -3 -5 20 -9 61 -9 90 0 48 -2 52 -23 52 -13 0
-32 6 -43 14 -18 14 -18 15 10 26 37 14 72 -7 81 -49 3 -17 14 -31 26 -34 10
-3 19 -4 19 -4 0 1 -19 40 -43 86 -23 47 -54 94 -69 104 -40 30 -124 34 -165
8z"/>
<path d="M550 691 c0 -5 11 -11 25 -13 28 -6 34 6 9 16 -22 8 -34 7 -34 -3z"/>
<path d="M545 662 c-3 -3 -5 -17 -5 -31 0 -21 2 -23 13 -9 6 8 20 20 31 25 17
9 16 11 -8 15 -14 3 -28 3 -31 0z"/>
<path d="M22 238 c1 -61 1 -62 7 -18 l7 45 19 -44 18 -44 18 44 18 44 0 -42
c1 -31 5 -43 16 -43 12 0 15 13 15 60 0 70 -21 83 -41 25 -7 -19 -16 -35 -19
-35 -3 0 -12 16 -19 35 -21 59 -41 45 -39 -27z"/>
<path d="M170 240 c0 -41 4 -60 13 -60 8 0 12 19 12 60 0 41 -4 60 -12 60 -9
0 -13 -19 -13 -60z"/>
<path d="M236 278 c-22 -30 -20 -54 5 -79 23 -23 80 -23 87 1 4 12 2 13 -9 3
-36 -35 -88 12 -69 62 9 25 14 27 45 22 21 -4 33 -2 30 4 -12 19 -73 10 -89
-13z"/>
<path d="M358 240 c-2 -43 1 -60 10 -60 7 0 12 13 12 30 0 25 4 30 25 30 21 0
25 -5 25 -30 0 -16 5 -30 10 -30 6 0 10 27 10 60 0 33 -4 60 -10 60 -5 0 -10
-11 -10 -25 0 -20 -5 -25 -25 -25 -20 0 -25 5 -25 25 0 52 -18 22 -22 -35z"/>
<path d="M490 240 c0 -33 4 -60 10 -60 6 0 10 27 10 60 0 33 -4 60 -10 60 -6
0 -10 -27 -10 -60z"/>
<path d="M557 282 c-40 -44 -6 -106 55 -100 25 2 34 8 36 26 2 12 -1 22 -7 22
-6 0 -11 -9 -11 -21 0 -33 -52 -22 -64 14 -14 38 3 62 43 62 17 0 31 3 31 7 0
16 -67 8 -83 -10z"/>
<path d="M698 257 c-10 -23 -20 -51 -23 -62 -6 -18 -5 -18 5 -2 14 21 60 23
60 2 0 -8 7 -15 14 -15 12 0 11 10 -6 53 -29 71 -31 72 -50 24z m18 -34 c-11
-11 -19 6 -11 24 8 17 8 17 12 0 3 -10 2 -21 -1 -24z"/>
<path d="M790 238 l4 -63 6 49 5 48 34 -46 c19 -25 36 -46 38 -46 2 0 2 28 2
63 -2 54 -3 57 -8 23 l-6 -40 -28 37 c-42 55 -53 49 -47 -25z"/>
<path d="M957 293 c-15 -14 -6 -41 18 -57 14 -9 25 -24 25 -32 0 -12 -7 -15
-25 -12 -14 3 -25 1 -25 -3 0 -10 31 -12 54 -3 26 10 20 53 -9 66 -30 14 -35
43 -5 35 11 -3 20 -1 20 4 0 10 -43 12 -53 2z"/>
<path d="M1048 293 c20 -4 22 -10 22 -59 0 -30 5 -54 10 -54 6 0 10 24 10 54
0 44 4 55 18 59 9 3 -5 5 -33 4 -27 0 -40 -2 -27 -4z"/>
<path d="M1138 241 c-15 -34 -22 -61 -17 -61 5 0 9 7 9 15 0 21 46 20 58 -1 5
-9 14 -15 19 -13 5 2 -2 30 -17 62 l-26 58 -26 -60z m32 -7 c0 -8 -4 -14 -10
-14 -5 0 -10 9 -10 21 0 11 5 17 10 14 6 -3 10 -13 10 -21z"/>
<path d="M1223 293 c13 -4 17 -15 17 -59 0 -36 4 -54 13 -54 8 0 11 16 9 54
-4 50 -2 55 20 59 12 2 1 4 -27 4 -27 1 -42 -1 -32 -4z"/>
<path d="M1320 240 l0 -60 38 1 c30 2 32 3 10 6 -36 6 -40 49 -5 56 l22 4 -22
2 c-35 2 -31 39 5 44 22 3 20 4 -10 6 l-38 1 0 -60z"/>
<path d="M362 143 c192 -2 504 -2 695 0 192 1 35 2 -347 2 -382 0 -539 -1
-348 -2z"/>
<path d="M20 66 c0 -18 7 -39 15 -46 17 -14 45 -7 44 12 0 10 -2 10 -6 1 -2
-7 -11 -13 -19 -13 -10 0 -14 12 -14 40 0 22 -4 40 -10 40 -5 0 -10 -15 -10
-34z"/>
<path d="M182 53 c1 -46 2 -46 5 -9 l4 39 29 -34 29 -34 -1 45 c-1 30 -2 35
-5 17 l-4 -28 -20 26 c-30 37 -39 31 -37 -22z"/>
<path d="M350 55 c0 -25 5 -45 10 -45 6 0 10 20 10 45 0 25 -4 45 -10 45 -5 0
-10 -20 -10 -45z"/>
<path d="M478 55 l16 -44 13 30 c17 40 16 48 -1 24 -12 -17 -13 -17 -20 8 -3
15 -11 27 -16 27 -5 0 -2 -20 8 -45z"/>
<path d="M620 55 c0 -43 1 -45 28 -44 16 1 20 3 10 6 -21 5 -24 39 -5 46 10 4
10 6 0 6 -19 1 -16 19 5 24 10 3 6 5 -10 6 -27 1 -28 -1 -28 -44z"/>
<path d="M771 53 c1 -26 4 -38 6 -25 5 28 10 28 35 -1 18 -20 19 -20 12 -2 -4
11 -7 31 -8 45 -1 18 -7 26 -23 28 -21 3 -23 0 -22 -45z m29 22 c0 -8 -4 -15
-10 -15 -5 0 -10 7 -10 15 0 8 5 15 10 15 6 0 10 -7 10 -15z"/>
<path d="M923 84 c-3 -9 3 -21 16 -30 24 -17 18 -39 -8 -29 -12 5 -13 3 -4 -6
6 -6 19 -9 27 -6 20 8 21 43 1 51 -20 7 -19 24 3 29 12 4 11 5 -6 6 -12 0 -25
-6 -29 -15z"/>
<path d="M1070 55 c0 -25 5 -45 10 -45 6 0 10 20 10 45 0 25 -4 45 -10 45 -5
0 -10 -20 -10 -45z"/>
<path d="M1192 93 c12 -3 18 -17 21 -46 l4 -42 1 42 c2 30 7 43 20 46 9 3 -1
5 -23 5 -22 0 -32 -2 -23 -5z"/>
<path d="M1344 75 c9 -13 17 -35 17 -47 1 -18 3 -17 8 7 4 20 1 36 -9 48 -22
26 -35 20 -16 -8z"/>
</g>
</svg>
